<svg width="206" height="206" viewBox="0 0 206 206" fill="none" xmlns="http://www.w3.org/2000/svg">
<g filter="url(#filter0_bd_215_2359)">
<circle cx="103" cy="78" r="28" transform="rotate(180 103 78)" fill="white"/>
</g>
<path fill-rule="evenodd" clip-rule="evenodd" d="M100.108 75.4281L104.395 71.2673C104.761 70.9117 105.356 70.9108 105.724 71.2653C106.091 71.6198 106.092 72.1954 105.726 72.5509L101.436 76.7145C101.076 77.0614 100.879 77.5198 100.879 78.0079C100.88 78.496 101.077 78.954 101.435 79.2977L105.725 83.4481C106.092 83.8032 106.092 84.3787 105.725 84.7337C105.358 85.0888 104.763 85.0887 104.396 84.7337L100.11 80.5861C99.396 79.9018 99.0009 78.9857 99 78.0095C98.9991 77.0332 99.3926 76.1165 100.108 75.4281Z" fill="#060714"/>
<defs>
<filter id="filter0_bd_215_2359" x="0" y="0" width="206" height="206" filterUnits="userSpaceOnUse" color-interpolation-filters="sRGB">
<feFlood flood-opacity="0" result="BackgroundImageFix"/>
<feGaussianBlur in="BackgroundImageFix" stdDeviation="3.5"/>
<feComposite in2="SourceAlpha" operator="in" result="effect1_backgroundBlur_215_2359"/>
<feColorMatrix in="SourceAlpha" type="matrix" values="0 0 0 0 0 0 0 0 0 0 0 0 0 0 0 0 0 0 127 0" result="hardAlpha"/>
<feOffset dy="25"/>
<feGaussianBlur stdDeviation="37.5"/>
<feComposite in2="hardAlpha" operator="out"/>
<feColorMatrix type="matrix" values="0 0 0 0 0.0235294 0 0 0 0 0.027451 0 0 0 0 0.0784314 0 0 0 0.1 0"/>
<feBlend mode="normal" in2="effect1_backgroundBlur_215_2359" result="effect2_dropShadow_215_2359"/>
<feBlend mode="normal" in="SourceGraphic" in2="effect2_dropShadow_215_2359" result="shape"/>
</filter>
</defs>
</svg>
