<svg width="40" height="40" viewBox="0 0 40 40" fill="none" xmlns="http://www.w3.org/2000/svg">
<mask id="path-1-inside-1_215_2284" fill="white">
<path fill-rule="evenodd" clip-rule="evenodd" d="M33.0007 33.1618C36.396 29.8078 38.5 25.1496 38.5 20C38.5 9.78273 30.2173 1.5 20 1.5C9.78273 1.5 1.5 9.78273 1.5 20C1.5 24.8155 3.3399 29.2014 6.35507 32.4928C8.2006 27.6982 13.416 24.2422 19.5615 24.2422C25.9893 24.2422 31.3996 28.023 33.0007 33.1618ZM19.7799 39.9988C19.8532 39.9996 19.9265 40 20 40C31.0457 40 40 31.0457 40 20C40 8.9543 31.0457 0 20 0C8.9543 0 0 8.9543 0 20C0 29.4526 6.5577 37.3736 15.3719 39.4618C16.7101 39.8122 18.112 40.0002 19.5618 40.0002C19.6346 40.0002 19.7073 39.9998 19.7799 39.9988ZM26.6668 15.1515C26.6668 18.8334 23.6821 21.8182 20.0002 21.8182C16.3183 21.8182 13.3335 18.8334 13.3335 15.1515C13.3335 11.4696 16.3183 8.48486 20.0002 8.48486C23.6821 8.48486 26.6668 11.4696 26.6668 15.1515Z"/>
</mask>
<path fill-rule="evenodd" clip-rule="evenodd" d="M33.0007 33.1618C36.396 29.8078 38.5 25.1496 38.5 20C38.5 9.78273 30.2173 1.5 20 1.5C9.78273 1.5 1.5 9.78273 1.5 20C1.5 24.8155 3.3399 29.2014 6.35507 32.4928C8.2006 27.6982 13.416 24.2422 19.5615 24.2422C25.9893 24.2422 31.3996 28.023 33.0007 33.1618ZM19.7799 39.9988C19.8532 39.9996 19.9265 40 20 40C31.0457 40 40 31.0457 40 20C40 8.9543 31.0457 0 20 0C8.9543 0 0 8.9543 0 20C0 29.4526 6.5577 37.3736 15.3719 39.4618C16.7101 39.8122 18.112 40.0002 19.5618 40.0002C19.6346 40.0002 19.7073 39.9998 19.7799 39.9988ZM26.6668 15.1515C26.6668 18.8334 23.6821 21.8182 20.0002 21.8182C16.3183 21.8182 13.3335 18.8334 13.3335 15.1515C13.3335 11.4696 16.3183 8.48486 20.0002 8.48486C23.6821 8.48486 26.6668 11.4696 26.6668 15.1515Z" fill="#1C1B66"/>
<path d="M33.0007 33.1618L31.5686 33.608L32.3016 35.9608L34.0548 34.2289L33.0007 33.1618ZM6.35507 32.4928L5.249 33.506L6.88495 35.2919L7.75494 33.0316L6.35507 32.4928ZM19.7799 39.9988L19.796 38.4989L19.7782 38.4987L19.7603 38.4989L19.7799 39.9988ZM15.3719 39.4618L15.7518 38.0107L15.7348 38.0063L15.7177 38.0022L15.3719 39.4618ZM37 20C37 24.7324 35.0682 29.0109 31.9465 32.0947L34.0548 34.2289C37.7237 30.6047 40 25.5668 40 20H37ZM20 3C29.3888 3 37 10.6112 37 20H40C40 8.9543 31.0457 0 20 0V3ZM3 20C3 10.6112 10.6112 3 20 3V0C8.9543 0 0 8.9543 0 20H3ZM7.46113 31.4796C4.68939 28.4539 3 24.4259 3 20H0C0 25.2051 1.99041 29.9488 5.249 33.506L7.46113 31.4796ZM7.75494 33.0316C9.34737 28.8946 13.948 25.7422 19.5615 25.7422V22.7422C12.884 22.7422 7.05383 26.5018 4.95519 31.954L7.75494 33.0316ZM19.5615 25.7422C25.4386 25.7422 30.1925 29.1915 31.5686 33.608L34.4328 32.7156C32.6066 26.8544 26.54 22.7422 19.5615 22.7422V25.7422ZM20 38.5C19.9319 38.5 19.8639 38.4996 19.796 38.4989L19.7637 41.4987C19.8424 41.4996 19.9211 41.5 20 41.5V38.5ZM38.5 20C38.5 30.2173 30.2173 38.5 20 38.5V41.5C31.8741 41.5 41.5 31.8741 41.5 20H38.5ZM20 1.5C30.2173 1.5 38.5 9.78273 38.5 20H41.5C41.5 8.12588 31.8741 -1.5 20 -1.5V1.5ZM1.5 20C1.5 9.78273 9.78273 1.5 20 1.5V-1.5C8.12588 -1.5 -1.5 8.12588 -1.5 20H1.5ZM15.7177 38.0022C7.56461 36.0707 1.5 28.7417 1.5 20H-1.5C-1.5 30.1635 5.55079 38.6766 15.0261 40.9214L15.7177 38.0022ZM19.5618 38.5002C18.2425 38.5002 16.9682 38.3292 15.7518 38.0107L14.992 40.9129C16.4519 41.2951 17.9814 41.5002 19.5618 41.5002V38.5002ZM19.7603 38.4989C19.6943 38.4998 19.6281 38.5002 19.5618 38.5002V41.5002C19.6411 41.5002 19.7203 41.4997 19.7994 41.4987L19.7603 38.4989ZM20.0002 23.3182C24.5105 23.3182 28.1668 19.6619 28.1668 15.1515H25.1668C25.1668 18.005 22.8536 20.3182 20.0002 20.3182V23.3182ZM11.8335 15.1515C11.8335 19.6619 15.4898 23.3182 20.0002 23.3182V20.3182C17.1467 20.3182 14.8335 18.005 14.8335 15.1515H11.8335ZM20.0002 6.98486C15.4898 6.98486 11.8335 10.6412 11.8335 15.1515H14.8335C14.8335 12.2981 17.1467 9.98486 20.0002 9.98486V6.98486ZM28.1668 15.1515C28.1668 10.6412 24.5105 6.98486 20.0002 6.98486V9.98486C22.8536 9.98486 25.1668 12.2981 25.1668 15.1515H28.1668Z" fill="#1C1B66" mask="url(#path-1-inside-1_215_2284)"/>
</svg>
