<svg width="24" height="24" viewBox="0 0 24 24" fill="none" xmlns="http://www.w3.org/2000/svg">
<path d="M8.65779 16.553L8.65764 16.5514C8.64446 16.4164 8.7431 16.2915 8.8874 16.2777L8.88855 16.2776C9.01803 16.265 9.14807 16.3675 9.16227 16.5076C9.31333 18.1406 9.78431 19.3788 10.8051 20.1849C11.8078 20.9766 13.2422 21.27 15.12 21.27H15.25C17.3196 21.27 18.8704 20.9092 19.8848 19.8948C20.8992 18.8804 21.26 17.3296 21.26 15.26V8.73998C21.26 6.67035 20.8992 5.11955 19.8848 4.10518C18.8704 3.0908 17.3196 2.72998 15.25 2.72998H15.12C13.2318 2.72998 11.7902 3.02843 10.7867 3.83531C9.76813 4.65428 9.30411 5.91033 9.16273 7.56657C9.15117 7.64767 9.11333 7.70965 9.06791 7.74841C9.02381 7.78605 8.96454 7.80941 8.88631 7.80213L8.88632 7.80202L8.87562 7.80125C8.74624 7.79201 8.63891 7.67631 8.64851 7.52879C8.81208 5.62129 9.40022 4.33018 10.4001 3.50266C11.4112 2.6658 12.9301 2.22998 15.11 2.22998H15.24C17.6375 2.22998 19.23 2.74461 20.2327 3.74728C21.2354 4.74996 21.75 6.3425 21.75 8.73998V15.26C21.75 17.6575 21.2354 19.25 20.2327 20.2527C19.23 21.2554 17.6375 21.77 15.24 21.77H15.11C12.9445 21.77 11.4341 21.3414 10.4249 20.5176C9.42685 19.7029 8.83514 18.432 8.65779 16.553Z" fill="#858688" stroke="#858688"/>
<path d="M14.88 12.25H2C1.86614 12.25 1.75 12.1339 1.75 12C1.75 11.8661 1.86614 11.75 2 11.75H14.88C15.0139 11.75 15.13 11.8661 15.13 12C15.13 12.1382 15.0195 12.25 14.88 12.25Z" fill="#858688" stroke="#858688"/>
<path d="M15.2935 12.3535L15.6471 12L15.2935 11.6464L12.4735 8.82641C12.3788 8.73167 12.3788 8.56826 12.4735 8.47352C12.5683 8.37878 12.7317 8.37878 12.8264 8.47352L16.1764 11.8235C16.2712 11.9183 16.2712 12.0817 16.1764 12.1764L12.8264 15.5264C12.7752 15.5777 12.7145 15.6 12.65 15.6C12.5854 15.6 12.5248 15.5777 12.4735 15.5264C12.3788 15.4317 12.3788 15.2683 12.4735 15.1735L15.2935 12.3535Z" fill="#858688" stroke="#858688"/>
</svg>
