<svg width="24" height="24" viewBox="0 0 24 24" fill="none" xmlns="http://www.w3.org/2000/svg">
<path d="M10.8755 20.8809L10.8754 20.8808L5.39799 17.7139C4.90007 17.3778 4.55953 17.1469 4.30968 16.9488C4.06131 16.7519 3.95687 16.6284 3.89979 16.5293C3.8469 16.4376 3.80297 16.312 3.77768 16.0538C3.75083 15.7794 3.75 15.4246 3.75 14.8801V9.11011C3.75 8.56804 3.75084 8.21527 3.77765 7.94256C3.80287 7.68606 3.84663 7.5616 3.89933 7.47044C3.95635 7.37179 4.06088 7.24837 4.30948 7.05142C4.55944 6.85339 4.90011 6.62243 5.39799 6.28634L10.8754 3.11939L10.8755 3.11936C11.1494 2.96096 11.5567 2.86011 12.0037 2.86011C12.4512 2.86011 12.8542 2.96113 13.1211 3.11737L13.1211 3.11738L13.1246 3.11939L18.602 6.28634C19.0999 6.62243 19.4406 6.85339 19.6905 7.05142C19.9391 7.24837 20.0436 7.37179 20.1007 7.47044C20.1534 7.5616 20.1971 7.68606 20.2223 7.94256C20.2492 8.21527 20.25 8.56804 20.25 9.11011V14.8901C20.25 15.4322 20.2492 15.7849 20.2223 16.0577C20.1971 16.3142 20.1534 16.4386 20.1007 16.5298C20.0436 16.6284 19.9391 16.7518 19.6905 16.9488C19.4406 17.1468 19.0999 17.3778 18.602 17.7139L13.1246 20.8808L13.1211 20.8828C12.8542 21.0391 12.4512 21.1401 12.0037 21.1401C11.5567 21.1401 11.1494 21.0393 10.8755 20.8809Z" stroke="#858688" stroke-width="1.5" stroke-linecap="round" stroke-linejoin="round"/>
<path d="M14.25 12C14.25 13.2426 13.2426 14.25 12 14.25C10.7574 14.25 9.75 13.2426 9.75 12C9.75 10.7574 10.7574 9.75 12 9.75C13.2426 9.75 14.25 10.7574 14.25 12Z" stroke="#858688" stroke-width="1.5" stroke-linecap="round" stroke-linejoin="round"/>
</svg>
