<svg width="24" height="24" viewBox="0 0 24 24" fill="none" xmlns="http://www.w3.org/2000/svg">
<mask id="path-1-inside-1_215_2164" fill="white">
<path d="M19.14 19.5C20.91 17.7 22 15.22 22 12.5C22 6.98 17.52 2.5 12 2.5C6.48 2.5 2 6.98 2 12.5C2 15.22 3.08 17.68 4.84 19.49"/>
</mask>
<path d="M18.0705 18.4483C17.4896 19.039 17.4976 19.9887 18.0883 20.5695C18.679 21.1504 19.6287 21.1424 20.2095 20.5517L18.0705 18.4483ZM3.76459 20.5357C4.34211 21.1296 5.29177 21.1429 5.8857 20.5654C6.47963 19.9879 6.49293 19.0382 5.91541 18.4443L3.76459 20.5357ZM20.2095 20.5517C22.2458 18.4809 23.5 15.627 23.5 12.5H20.5C20.5 14.813 19.5742 16.9191 18.0705 18.4483L20.2095 20.5517ZM23.5 12.5C23.5 6.15157 18.3484 1 12 1V4C16.6916 4 20.5 7.80843 20.5 12.5H23.5ZM12 1C5.65157 1 0.5 6.15157 0.5 12.5H3.5C3.5 7.80843 7.30843 4 12 4V1ZM0.5 12.5C0.5 15.6266 1.74373 18.4574 3.76459 20.5357L5.91541 18.4443C4.41626 16.9026 3.5 14.8134 3.5 12.5H0.5Z" fill="#858688" mask="url(#path-1-inside-1_215_2164)"/>
<path d="M14.63 18.1202C14.63 19.5727 13.4525 20.7502 12 20.7502C10.5475 20.7502 9.37 19.5727 9.37 18.1202C9.37 16.6677 10.5475 15.4902 12 15.4902C13.4525 15.4902 14.63 16.6677 14.63 18.1202Z" stroke="#858688" stroke-width="1.5" stroke-miterlimit="10" stroke-linecap="round" stroke-linejoin="round"/>
<path d="M16 11.25H15.25V10.5C15.25 10.0875 15.591 9.75 16 9.75C16.4058 9.75 16.75 10.0942 16.75 10.5C16.75 10.9125 16.409 11.25 16 11.25Z" stroke="#858688" stroke-width="1.5" stroke-miterlimit="10" stroke-linecap="round" stroke-linejoin="round"/>
</svg>
