<svg width="30" height="31" viewBox="0 0 30 31" fill="none" xmlns="http://www.w3.org/2000/svg">
<path d="M27.0875 9.1875C26.2875 6.475 24.025 4.2125 21.3125 3.4125C19.25 2.8125 17.825 2.8625 16.8375 3.6C15.65 4.4875 15.5125 6.0875 15.5125 7.225V10.3375C15.5125 13.4125 16.9125 14.975 19.6625 14.975H23.25C24.375 14.975 25.9875 14.8375 26.875 13.65C27.6375 12.675 27.7 11.25 27.0875 9.1875Z" fill="white"/>
<path d="M23.6375 17.1999C23.3125 16.8249 22.8375 16.6124 22.35 16.6124H17.875C15.675 16.6124 13.8875 14.8249 13.8875 12.6249V8.14994C13.8875 7.66244 13.675 7.18744 13.3 6.86244C12.9375 6.53744 12.4375 6.38744 11.9625 6.44994C9.025 6.82494 6.325 8.43744 4.5625 10.8624C2.7875 13.2999 2.1375 16.2749 2.7 19.2499C3.5125 23.5499 6.95 26.9874 11.2625 27.7999C11.95 27.9374 12.6375 27.9999 13.325 27.9999C15.5875 27.9999 17.775 27.2999 19.6375 25.9374C22.0625 24.1749 23.675 21.4749 24.05 18.5374C24.1125 18.0499 23.9625 17.5624 23.6375 17.1999Z" fill="white"/>
</svg>
