<svg width="24" height="24" viewBox="0 0 24 24" fill="none" xmlns="http://www.w3.org/2000/svg">
<path d="M10.8755 20.8806L10.8754 20.8806L5.39799 17.7136C4.90007 17.3775 4.55953 17.1466 4.30968 16.9486C4.06131 16.7517 3.95687 16.6281 3.89979 16.5291C3.8469 16.4373 3.80297 16.3118 3.77768 16.0535C3.75083 15.7792 3.75 15.4244 3.75 14.8799V9.10986C3.75 8.56779 3.75084 8.21503 3.77765 7.94232C3.80287 7.68582 3.84663 7.56135 3.89933 7.4702C3.95635 7.37154 4.06088 7.24812 4.30948 7.05118C4.55944 6.85315 4.90011 6.62218 5.39799 6.28609L10.8754 3.11915L10.8755 3.11911C11.1494 2.96072 11.5567 2.85986 12.0037 2.85986C12.4512 2.85986 12.8542 2.96088 13.1211 3.11712L13.1211 3.11713L13.1246 3.11915L18.602 6.2861C19.0999 6.62218 19.4406 6.85315 19.6905 7.05118C19.9391 7.24812 20.0436 7.37154 20.1007 7.4702C20.1534 7.56135 20.1971 7.68582 20.2223 7.94232C20.2492 8.21503 20.25 8.56779 20.25 9.10986V14.8899C20.25 15.4319 20.2492 15.7847 20.2223 16.0574C20.1971 16.3139 20.1534 16.4384 20.1007 16.5295C20.0436 16.6282 19.9391 16.7516 19.6905 16.9486C19.4406 17.1466 19.0999 17.3775 18.602 17.7136L13.1246 20.8806L13.1211 20.8826C12.8542 21.0388 12.4512 21.1399 12.0037 21.1399C11.5567 21.1399 11.1494 21.039 10.8755 20.8806Z" stroke="#858688" stroke-width="1.5" stroke-linecap="round" stroke-linejoin="round"/>
<path d="M14.25 12C14.25 13.2426 13.2426 14.25 12 14.25C10.7574 14.25 9.75 13.2426 9.75 12C9.75 10.7574 10.7574 9.75 12 9.75C13.2426 9.75 14.25 10.7574 14.25 12Z" stroke="#858688" stroke-width="1.5" stroke-linecap="round" stroke-linejoin="round"/>
</svg>
