<svg width="24" height="24" viewBox="0 0 24 24" fill="none" xmlns="http://www.w3.org/2000/svg">
<mask id="path-1-inside-1_215_1939" fill="white">
<path d="M4.02 5.97C2.75 7.65 2 9.74 2 12C2 17.52 6.48 22 12 22C17.52 22 22 17.52 22 12C22 6.48 17.52 2 12 2"/>
</mask>
<path d="M5.21657 6.87455C5.71614 6.2137 5.5854 5.273 4.92455 4.77343C4.2637 4.27386 3.323 4.4046 2.82343 5.06545L5.21657 6.87455ZM12 0.5C11.1716 0.5 10.5 1.17157 10.5 2C10.5 2.82843 11.1716 3.5 12 3.5V0.5ZM2.82343 5.06545C1.36308 6.99725 0.5 9.40281 0.5 12H3.5C3.5 10.0772 4.13692 8.30275 5.21657 6.87455L2.82343 5.06545ZM0.5 12C0.5 18.3484 5.65157 23.5 12 23.5V20.5C7.30843 20.5 3.5 16.6916 3.5 12H0.5ZM12 23.5C18.3484 23.5 23.5 18.3484 23.5 12H20.5C20.5 16.6916 16.6916 20.5 12 20.5V23.5ZM23.5 12C23.5 5.65157 18.3484 0.5 12 0.5V3.5C16.6916 3.5 20.5 7.30843 20.5 12H23.5Z" fill="#858688" mask="url(#path-1-inside-1_215_1939)"/>
<mask id="path-3-inside-2_215_1939" fill="white">
<path d="M5 12C5 15.87 8.13 19 12 19C15.87 19 19 15.87 19 12C19 8.13 15.87 5 12 5"/>
</mask>
<path d="M6.5 12C6.5 11.1716 5.82843 10.5 5 10.5C4.17157 10.5 3.5 11.1716 3.5 12H6.5ZM12 3.5C11.1716 3.5 10.5 4.17157 10.5 5C10.5 5.82843 11.1716 6.5 12 6.5V3.5ZM3.5 12C3.5 16.6984 7.30157 20.5 12 20.5V17.5C8.95843 17.5 6.5 15.0416 6.5 12H3.5ZM12 20.5C16.6984 20.5 20.5 16.6984 20.5 12H17.5C17.5 15.0416 15.0416 17.5 12 17.5V20.5ZM20.5 12C20.5 7.30157 16.6984 3.5 12 3.5V6.5C15.0416 6.5 17.5 8.95843 17.5 12H20.5Z" fill="#858688" mask="url(#path-3-inside-2_215_1939)"/>
<mask id="path-5-inside-3_215_1939" fill="white">
<path d="M12 16C14.21 16 16 14.21 16 12C16 9.79 14.21 8 12 8"/>
</mask>
<path d="M12 14.5C11.1716 14.5 10.5 15.1716 10.5 16C10.5 16.8284 11.1716 17.5 12 17.5V14.5ZM12 6.5C11.1716 6.5 10.5 7.17157 10.5 8C10.5 8.82843 11.1716 9.5 12 9.5V6.5ZM12 17.5C15.0384 17.5 17.5 15.0384 17.5 12H14.5C14.5 13.3816 13.3816 14.5 12 14.5V17.5ZM17.5 12C17.5 8.96157 15.0384 6.5 12 6.5V9.5C13.3816 9.5 14.5 10.6184 14.5 12H17.5Z" fill="#858688" mask="url(#path-5-inside-3_215_1939)"/>
</svg>
