<svg width="24" height="24" viewBox="0 0 24 24" fill="none" xmlns="http://www.w3.org/2000/svg">
<path d="M10.8755 20.8807L10.8754 20.8807L5.39799 17.7138C4.90007 17.3776 4.55953 17.1468 4.30968 16.9487C4.06131 16.7518 3.95687 16.6282 3.89979 16.5292C3.8469 16.4374 3.80297 16.3119 3.77768 16.0536C3.75083 15.7793 3.75 15.4245 3.75 14.88V9.10998C3.75 8.56791 3.75084 8.21515 3.77765 7.94244C3.80287 7.68594 3.84663 7.56148 3.89933 7.47032C3.95635 7.37166 4.06088 7.24825 4.30948 7.0513C4.55944 6.85327 4.90011 6.6223 5.39799 6.28621L10.8754 3.11927L10.8755 3.11923C11.1494 2.96084 11.5567 2.85999 12.0037 2.85999C12.4512 2.85999 12.8542 2.961 13.1211 3.11725L13.1211 3.11726L13.1246 3.11927L18.602 6.28622C19.0999 6.62231 19.4406 6.85327 19.6905 7.0513C19.9391 7.24825 20.0436 7.37166 20.1007 7.47032C20.1534 7.56148 20.1971 7.68594 20.2223 7.94244C20.2492 8.21515 20.25 8.56791 20.25 9.10998V14.89C20.25 15.4321 20.2492 15.7848 20.2223 16.0575C20.1971 16.314 20.1534 16.4385 20.1007 16.5297C20.0436 16.6283 19.9391 16.7517 19.6905 16.9487C19.4406 17.1467 19.0999 17.3777 18.602 17.7138L13.1246 20.8807L13.1211 20.8827C12.8542 21.039 12.4512 21.14 12.0037 21.14C11.5567 21.14 11.1494 21.0391 10.8755 20.8807Z" stroke="#858688" stroke-width="1.5" stroke-linecap="round" stroke-linejoin="round"/>
<path d="M14.25 12C14.25 13.2426 13.2426 14.25 12 14.25C10.7574 14.25 9.75 13.2426 9.75 12C9.75 10.7574 10.7574 9.75 12 9.75C13.2426 9.75 14.25 10.7574 14.25 12Z" stroke="#858688" stroke-width="1.5" stroke-linecap="round" stroke-linejoin="round"/>
</svg>
