<svg width="30" height="31" viewBox="0 0 30 31" fill="none" xmlns="http://www.w3.org/2000/svg">
<path d="M27.0875 9.1875C26.2875 6.475 24.025 4.2125 21.3125 3.4125C19.25 2.8125 17.825 2.8625 16.8375 3.6C15.65 4.4875 15.5125 6.0875 15.5125 7.225V10.3375C15.5125 13.4125 16.9125 14.975 19.6625 14.975H23.25C24.375 14.975 25.9875 14.8375 26.875 13.65C27.6375 12.675 27.7 11.25 27.0875 9.1875Z" fill="white"/>
<path d="M23.6375 17.2C23.3125 16.825 22.8375 16.6125 22.35 16.6125H17.875C15.675 16.6125 13.8875 14.825 13.8875 12.625V8.15C13.8875 7.6625 13.675 7.1875 13.3 6.8625C12.9375 6.5375 12.4375 6.3875 11.9625 6.45C9.025 6.825 6.325 8.4375 4.5625 10.8625C2.7875 13.3 2.1375 16.275 2.7 19.25C3.5125 23.55 6.95 26.9875 11.2625 27.8C11.95 27.9375 12.6375 28 13.325 28C15.5875 28 17.775 27.3 19.6375 25.9375C22.0625 24.175 23.675 21.475 24.05 18.5375C24.1125 18.05 23.9625 17.5625 23.6375 17.2Z" fill="white"/>
</svg>
