<svg width="40" height="40" viewBox="0 0 40 40" fill="none" xmlns="http://www.w3.org/2000/svg">
<rect width="40" height="40" rx="10" fill="#F0F0F0"/>
<path d="M25.5349 15.77C25.4649 15.76 25.3949 15.76 25.3249 15.77C23.7749 15.72 22.5449 14.45 22.5449 12.89C22.5449 11.3 23.8349 10 25.4349 10C27.0249 10 28.3249 11.29 28.3249 12.89C28.3149 14.45 27.0849 15.72 25.5349 15.77Z" fill="#292D32"/>
<path d="M28.795 22.6999C27.675 23.4499 26.105 23.7299 24.655 23.5399C25.035 22.7199 25.235 21.8099 25.245 20.8499C25.245 19.8499 25.025 18.8999 24.605 18.0699C26.085 17.8699 27.655 18.1499 28.785 18.8999C30.365 19.9399 30.365 21.6499 28.795 22.6999Z" fill="#292D32"/>
<path d="M14.445 15.77C14.515 15.76 14.585 15.76 14.655 15.77C16.205 15.72 17.435 14.45 17.435 12.89C17.435 11.29 16.145 10 14.545 10C12.955 10 11.665 11.29 11.665 12.89C11.665 14.45 12.895 15.72 14.445 15.77Z" fill="#292D32"/>
<path d="M14.555 20.8501C14.555 21.8201 14.765 22.7401 15.145 23.5701C13.735 23.7201 12.265 23.4201 11.185 22.7101C9.605 21.6601 9.605 19.9501 11.185 18.9001C12.255 18.1801 13.765 17.8901 15.185 18.0501C14.775 18.8901 14.555 19.8401 14.555 20.8501Z" fill="#292D32"/>
<path d="M20.1249 23.87C20.0449 23.86 19.9549 23.86 19.8649 23.87C18.0249 23.81 16.5549 22.3 16.5549 20.44C16.5649 18.54 18.0949 17 20.0049 17C21.9049 17 23.4449 18.54 23.4449 20.44C23.4349 22.3 21.9749 23.81 20.1249 23.87Z" fill="#292D32"/>
<path d="M16.8749 25.9399C15.3649 26.9499 15.3649 28.6099 16.8749 29.6099C18.5949 30.7599 21.4149 30.7599 23.1349 29.6099C24.6449 28.5999 24.6449 26.9399 23.1349 25.9399C21.4249 24.7899 18.6049 24.7899 16.8749 25.9399Z" fill="#292D32"/>
</svg>
