<svg width="40" height="40" viewBox="0 0 40 40" fill="none" xmlns="http://www.w3.org/2000/svg">
<rect width="40" height="40" rx="10" fill="#F0F0F0"/>
<path d="M16.3899 26.49V16.33C16.3899 15.93 16.5099 15.54 16.7299 15.21L19.4599 11.15C19.8899 10.5 20.9599 10.04 21.8699 10.38C22.8499 10.71 23.4999 11.81 23.2899 12.79L22.7699 16.06C22.7299 16.36 22.8099 16.63 22.9799 16.84C23.1499 17.03 23.3999 17.15 23.6699 17.15H27.7799C28.5699 17.15 29.2499 17.47 29.6499 18.03C30.0299 18.57 30.0999 19.27 29.8499 19.98L27.3899 27.47C27.0799 28.71 25.7299 29.72 24.3899 29.72H20.4899C19.8199 29.72 18.8799 29.49 18.4499 29.06L17.1699 28.07C16.6799 27.7 16.3899 27.11 16.3899 26.49Z" fill="#292D32"/>
<path d="M13.21 14.3799H12.18C10.63 14.3799 10 14.9799 10 16.4599V26.5199C10 27.9999 10.63 28.5999 12.18 28.5999H13.21C14.76 28.5999 15.39 27.9999 15.39 26.5199V16.4599C15.39 14.9799 14.76 14.3799 13.21 14.3799Z" fill="#292D32"/>
</svg>
