<svg width="7" height="14" viewBox="0 0 7 14" fill="none" xmlns="http://www.w3.org/2000/svg">
<path fill-rule="evenodd" clip-rule="evenodd" d="M1.10802 4.42806L5.39491 0.267268C5.76131 -0.0883211 6.35626 -0.0891851 6.72378 0.265268C7.09126 0.619766 7.0922 1.19535 6.72585 1.55094L2.43604 5.71446C2.07552 6.06142 1.87877 6.51982 1.87919 7.00791C1.87961 7.496 2.07716 7.95404 2.43548 8.29768L6.72477 12.4481C7.09173 12.8032 7.09168 13.3787 6.72472 13.7337C6.35781 14.0888 5.76286 14.0887 5.39595 13.7337L1.10961 9.58613C0.395993 8.90177 0.00089347 7.98568 7.7092e-07 7.00946C-0.000891928 6.03324 0.39261 5.11651 1.10802 4.42806Z" fill="#060714"/>
</svg>
